{"title":"Vamps 2012 DVD9rip English Klam","uid":7858119,"size":1781231403,"categoryP":"video","categoryS":"movies","magnet":"?xt=urn:btih:d3c6832d16a44710ab36f3743b721cadea97f90c&amp;dn=Vamps+2012+DVD9rip+English+Klam&amp;tr=udp%3A%2F%2Ftracker.openbittorrent.com%3A80&amp;tr=udp%3A%2F%2Fopen.demonii.com%3A1337&amp;tr=udp%3A%2F%2Ftracker.coppersurfer.tk%3A6969&amp;tr=udp%3A%2F%2Fexodus.desync.com%3A6969","seeders":1,"leechers":0,"uploader":"Klambake","files":-1,"time":1353840213,"description":"With: Alicia Silverstone, Krysten Ritter and Sigourney Weaver\n\nStacey (Krysten Ritter) en Goody (Alicia Silverstone) leiden een uitermate goed leven in de New Yorkse nachten als twee knappe, jonge vampieren. Hun leven raakt echter gecompliceerd wanneer ze verliefd worden op twee mannen en worden opgejaagd door vampierenjagers. Nu zullen ze een keuze moeten maken die hun onsterfelijkheid en misschien nog wel veel meer in gevaar kan brengen.\n\nTwo female vampires in modern-day New York City are faced with daunting romantic possibilities. \n &lt;a href=&quot;\nhttp://www.imdb.com/title/tt1545106&quot; rel=&quot;nofollow&quot; target=&quot;_NEW&quot;&gt;\nhttp://www.imdb.com/title/tt1545106&lt;/a&gt;\t\n\n------------------------ Dutch Friends ------------------------\n---------------------------------------------------------------\n- Bezoek ook eens mijn vrienden op: &lt;a href=&quot; http://www.Film-Test.nl&quot; rel=&quot;nofollow&quot; target=&quot;_NEW&quot;&gt; http://www.Film-Test.nl&lt;/a&gt; --\n----- voor mijn Nederlandse Sync. ondertitels ---- en meer ----\n------- http://www.Film-Test.nl ---- Over Films en meer -------\n---------------------------------------------------------------\n\nGeneral:\n\nComplete name                    : VampsVamps.avi\nFormat                           : AVI\nFormat/Info                      : Audio Video Interleave\nFile size                        : 1.66 GiB\nDuration                         : 1h 29mn\nOverall bit rate                 : 2 664 Kbps\n\nVideo:\n\nFormat                           : MPEG-4 Visual\nFormat profile                   : Simple@L3\nFormat settings, BVOP            : No\nFormat settings, QPel            : No\nFormat settings, GMC             : No warppoints\nFormat settings, Matrix          : Default (H.263)\nCodec ID                         : XVID\nCodec ID/Hint                    : XviD\nDuration                         : 1h 29mn\nBit rate                         : 2 206 Kbps\nWidth                            : 652 pixels\nHeight                           : 352 pixels\nDisplay aspect ratio             : 1.852\nFrame rate                       : 25.000 fps\nColor space                      : YUV\nChroma subsampling               : 4:2:0\nBit depth                        : 8 bits\nScan type                        : Progressive\nCompression mode                 : Lossy\nBits/(Pixel*Frame)               : 0.384\nStream size                      : 1.37 GiB (83%)\nWriting library                  : XviD 1.1.2 (UTC 2006-11-01)\n\nAudio:\n\nFormat                           : AC-3\nFormat/Info                      : Audio Coding 3\nMode extension                   : CM (complete main)\nCodec ID                         : 2000\nDuration                         : 1h 29mn\nBit rate mode                    : Constant\nBit rate                         : 448 Kbps\nChannel(s)                       : 6 channels\nChannel positions                : Front: L C R, Side: L R, LFE\nSampling rate                    : 48.0 KHz\nBit depth                        : 16 bits\nCompression mode                 : Lossy\nStream size                      : 286 MiB (17%)\nAlignment                        : Aligned on interleaves\nInterleave, duration             : 32 ms (0.80 video frame)\nInterleave, preload duration     : 1536 ms","torrent":{"xt":"urn:btih:d3c6832d16a44710ab36f3743b721cadea97f90c","amp;dn":"Vamps+2012+DVD9rip+English+Klam","amp;tr":["udp%3A%2F%2Ftracker.openbittorrent.com%3A80","udp%3A%2F%2Fopen.demonii.com%3A1337","udp%3A%2F%2Ftracker.coppersurfer.tk%3A6969","udp%3A%2F%2Fexodus.desync.com%3A6969"],"infoHash":"d3c6832d16a44710ab36f3743b721cadea97f90c","infoHashBuffer":{"type":"Buffer","data":[211,198,131,45,22,164,71,16,171,54,243,116,59,114,28,173,234,151,249,12]},"announce":[],"urlList":[]}}